<?xml version="1.0" encoding="utf-8"?>
<!-- Generator: Adobe Illustrator 18.1.1, SVG Export Plug-In . SVG Version: 6.00 Build 0)  -->
<!DOCTYPE svg PUBLIC "-//W3C//DTD SVG 1.1//EN" "http://www.w3.org/Graphics/SVG/1.1/DTD/svg11.dtd">
<svg version="1.1" id="Layer_1" xmlns="http://www.w3.org/2000/svg" xmlns:xlink="http://www.w3.org/1999/xlink" x="0px" y="0px"
	 width="100px" height="100px" viewBox="0 0 100 100" enable-background="new 0 0 100 100" xml:space="preserve">
<rect fill="none" width="100" height="100"/>
<g>
	<path fill="#669940" d="M65.7,89c-1.7,0-3.5-0.2-5.2-0.4l-2.1-0.2c-0.9-0.2-1.9-0.3-2.9-0.4l-0.3,0c-2.2-0.3-4.5-0.6-6.5-1.4
		c-1.6-0.7-3.1-1.8-4.5-2.8l-0.3-0.2c-0.4-0.3-0.8-0.6-1.2-0.9c-0.4-0.3-0.9-0.7-1.3-1.2c-1-0.9-1.9-1.8-3.1-2
		c-0.8-0.1-1.5-0.2-2.3-0.3L36,79c-0.7-0.1-1.4,0-2.1-0.2L33.8,79h-0.5c-0.8,0-1.6-0.1-2.5,0c-0.5,0-6.9,0-12.3,0
		c-3.1,0-5.6-2.5-5.6-5.6V52.6c0-3.1,2.5-5.6,5.5-5.6c6.9-0.1,16.5-0.2,16.8-0.2l0,0l0.1,0c1.4-0.3,2.6-0.6,3.8-1.5
		c2.1-1.9,3.9-4.1,5.6-6.3l1.2-1.5c2.3-2.7,5-6.4,6.4-10.3c0.8-2,1.1-4.2,1-6.7c0-0.3,0-0.7,0-1l0-0.3c-0.1-1.8-0.2-3.3,0.3-4.8
		c0.7-2.2,2.3-3.3,4.6-3.3c1.6,0,3.3,0.6,4.5,1.6c3.4,2.4,5.6,6.9,5.9,12.1c0.1,2.9-0.8,5.4-1.6,7.9c-0.8,2.3-1.6,4.5-1.6,7
		c0,4.5,4.4,5.5,8,6.4l0.4,0.1c0.3,0.1,0.6,0.1,0.8,0.2c0.5,0.1,0.9,0.2,1.3,0.2l0.3,0c3,0.5,6.4,1.1,8.8,3.3
		c1.7,1.7,2.5,4.6,2.1,7.3c-0.3,1.9-1.2,3.5-2.6,4.4l-0.6,0.4l0.2,0.7c0.9,3.3-0.8,7.2-3.9,9.3l-0.6,0.4l0.1,0.7
		c0.3,1.5,0,3.1-0.8,4.7c-0.9,1.8-2.5,3.2-4.1,3.8l-0.7,0.3v0.7c0,3-2,5.5-5.2,6.4C67.9,88.9,66.9,89,65.7,89z M58.2,13.8
		c-0.1,0-0.3,0-0.4,0c-1.9,0.3-1.8,3-1.7,4.7l0,0.4c0.1,2.7,0.2,4.9-0.4,7.5c-0.8,3.4-2.8,6.3-4.8,9.1l-0.2,0.3
		c-0.4,0.5-0.7,1.1-1.1,1.6c-1.8,2.7-4.2,5.6-6.8,8.4l-0.1,0.1c-0.5,0.5-0.9,1.1-1.4,1.5l-0.2,0.1L41,47.6c-0.1,0.1-0.1,0.1-0.1,0.1
		l-0.1,0.1l-0.1,0.1c-1.5,1.1-3.1,1.8-5.1,2.1c-1.7,0.3-3.4,0.7-4.3,2.2c-1.5,2.7-1.6,6.4-1.6,9l0,0.6c0,3.1,0,6.4,0.8,9.3
		c0.9,3.3,2.8,4.7,6.5,5.1c1,0,2.1,0,3,0.6l0.1,0.1l0.1,0c1,0.3,1.9,1.1,2.7,1.9l0.1,0.1c0.4,0.3,0.7,0.7,1,0.9
		c0.3,0.2,0.6,0.4,0.9,0.7l0.5,0.3c1.3,1,2.8,2.1,4.2,2.8l0.1,0l0.1,0c0.7,0.2,1.5,0.3,2.3,0.5l1.9,0.5c3.7,0.7,7.6,1.3,10.7,1.3
		c0.1,0,0.2,0,0.4,0c1.2,0,2.3-0.1,3.4-0.4c0.9-0.1,1.7-0.6,2.1-1.4c0.6-1,0.7-2.3,0.2-3.6c-0.2-0.4-0.1-0.7,0-1
		c0.3-0.5,1.1-0.8,1.7-0.8l0,0c0.1,0,0.3,0.1,0.5,0.1c1.1,0,2.2-0.8,2.8-2.1c0.7-1.4,1-3.3,0.2-4.5c-0.3-0.4-0.4-0.9-0.1-1.4
		c0.2-0.4,0.5-0.7,0.9-0.8l0.1,0l0.1,0c1.9-0.7,3.3-1.9,3.8-3.7c0.4-1.4,0.4-3.2-0.5-4.2c-0.4-0.6-0.4-1.3-0.2-1.9
		c0.2-0.4,0.5-0.7,1-0.8c1.6-0.3,2.7-1.5,2.9-3.5c0.3-2.4-1.5-4.2-3.1-5.1c-2.2-1.3-4.9-1.7-7.5-2.1c-1.2-0.2-2.7-0.4-4-0.8
		c-4.1-1.1-7-4.2-7.3-7.8c-0.2-2.8,0.7-5.4,1.6-8c0.8-2.3,1.5-4.5,1.6-6.9c0.1-2.3-0.6-4.8-1.9-7.3C62.4,16,60.2,13.8,58.2,13.8z"/>
</g>
</svg>
