<?xml version="1.0" encoding="utf-8"?>
<!-- Generator: Adobe Illustrator 18.1.1, SVG Export Plug-In . SVG Version: 6.00 Build 0)  -->
<!DOCTYPE svg PUBLIC "-//W3C//DTD SVG 1.1//EN" "http://www.w3.org/Graphics/SVG/1.1/DTD/svg11.dtd">
<svg version="1.1" id="Layer_1" xmlns="http://www.w3.org/2000/svg" xmlns:xlink="http://www.w3.org/1999/xlink" x="0px" y="0px"
	 width="100px" height="100px" viewBox="0 0 100 100" enable-background="new 0 0 100 100" xml:space="preserve">
<rect fill="none" width="100" height="100"/>
<g>
	<path fill="#669940" d="M70.2,91L70.2,91c-1,0-2-0.1-3-0.2c-8.5-0.6-43.4-11.5-58.1-53.1c-2-5.7-1.3-13.2,1.7-19.1
		c2.3-4.6,5.8-7.8,10-9.1C22,9.2,23.1,9,24.2,9c8.7,0,13.7,11.8,15.4,21.9l0.1,0.5l-9.2,9.2c0.2,1.4,1.7,6.9,12,17.2
		c10.3,10.3,15.8,11.8,17.2,12l10.7-10.7l0.5,0.1c6.8,1.4,20,9.8,20.6,10.1l0.5,0.3l-0.1,0.6C90.2,83.1,81.9,91,70.2,91z M24.2,11
		c-0.9,0-1.8,0.2-2.7,0.5c-4.7,1.5-7.4,5.2-8.9,8.1C9.9,24.9,9.2,32,11,37.1c14.3,40.5,48.1,51.1,56.4,51.7c1,0.1,1.9,0.2,2.8,0.2
		c10.6,0,17.9-6.8,19.7-18.3c-2.5-1.6-13-7.9-18.9-9.4L60.4,71.8l-0.4,0h0c-0.7,0-6.8-0.4-19-12.6c-12.7-12.7-12.6-18.8-12.6-19
		l0-0.4l9.1-9.1C36.2,23.2,32,11,24.2,11z"/>
</g>
</svg>
