<?xml version="1.0" encoding="utf-8"?>
<!-- Generator: Adobe Illustrator 18.1.1, SVG Export Plug-In . SVG Version: 6.00 Build 0)  -->
<!DOCTYPE svg PUBLIC "-//W3C//DTD SVG 1.1//EN" "http://www.w3.org/Graphics/SVG/1.1/DTD/svg11.dtd">
<svg version="1.1" id="Layer_1" xmlns="http://www.w3.org/2000/svg" xmlns:xlink="http://www.w3.org/1999/xlink" x="0px" y="0px"
	 width="100px" height="100px" viewBox="0 0 100 100" enable-background="new 0 0 100 100" xml:space="preserve">
<rect fill="none" width="100" height="100"/>
<g>
	<g>
		<path fill="#669940" d="M64.3,92.2H2.7v-5.7c1.1,0.9,2.5,1.4,4.1,1.4H60L64.3,92.2z"/>
	</g>
	<g>
		<path fill="#669940" d="M37.2,31.9c-6.5,2.2-13.5-1.2-15.8-7.7c-0.5-1.3-0.7-2.7-0.7-4.1c0-3.7,1.8-7.3,4.7-9.6
			c1.1-0.9,2.3-1.6,3.7-2c6.5-2.2,13.5,1.2,15.8,7.7S43.7,29.6,37.2,31.9z M29.8,10.3c-1.1,0.4-2.2,1-3.1,1.7
			c-2.4,1.9-3.9,5-3.9,8.1c0,1.2,0.2,2.4,0.6,3.5c1.9,5.4,7.8,8.3,13.2,6.4c5.4-1.9,8.3-7.8,6.4-13.2C41.1,11.3,35.2,8.4,29.8,10.3z
			"/>
	</g>
	<g>
		<path fill="#669940" d="M92.1,92.3H69.9c-0.8,0-1.6-0.2-2.3-0.5c-0.8-0.3-1.5-0.8-2-1.4l-4.9-5H6.8c-2.8,0-5.1-2.3-5.1-5.1V69.8
			c0-2.8,2.3-5.1,5.1-5.1c0,0,44.9,0,48.2,0c2.1,0,3,0.5,4.3,1.8l13.2,13.4H92c3.4,0,6.2,2.7,6.2,6.1c0,1.7-0.6,3.2-1.8,4.4
			C95.3,91.6,93.8,92.3,92.1,92.3z M55,66.7c-3.2,0-48.2,0-48.2,0c-1.7,0-3.1,1.4-3.1,3.1v10.5c0,1.7,1.4,3.1,3.1,3.1h54.2
			c0.3,0,0.5,0.1,0.7,0.3L67,89c0.4,0.4,0.9,0.7,1.4,0.9c0.5,0.2,1,0.3,1.6,0.3h22.2c1.1,0,2.2-0.4,3-1.2c0.8-0.8,1.2-1.9,1.2-3
			c0-2.2-1.9-4.1-4.2-4.1H72.1c-0.3,0-0.5-0.1-0.7-0.3L57.9,67.9C57,67,56.6,66.7,55,66.7z"/>
	</g>
	<g>
		<path fill="#669940" d="M78,78.4c-7.1,0-12.8-5.8-12.8-12.8S70.9,52.8,78,52.8s12.8,5.8,12.8,12.8S85.1,78.4,78,78.4z M78,54.8
			c-6,0-10.8,4.9-10.8,10.8c0,6,4.9,10.8,10.8,10.8s10.8-4.9,10.8-10.8C88.8,59.6,84,54.8,78,54.8z"/>
	</g>
	<path fill="none" stroke="#669940" stroke-width="2" stroke-miterlimit="10" d="M43.4,51.8v13.8H22.2V43.2c0-4.8,3.9-8.7,8.7-8.7
		h7.7l14.8,11.7l7.1,2.5c2.5,0.9,3.8,3.5,3.1,6l0,0c-0.7,2.5-3.3,4-5.8,3.4l-7.4-1.8L43.4,51.8z"/>
</g>
</svg>
