<?xml version="1.0" encoding="utf-8"?>
<!-- Generator: Adobe Illustrator 18.1.1, SVG Export Plug-In . SVG Version: 6.00 Build 0)  -->
<!DOCTYPE svg PUBLIC "-//W3C//DTD SVG 1.1//EN" "http://www.w3.org/Graphics/SVG/1.1/DTD/svg11.dtd">
<svg version="1.1" id="Layer_1" xmlns="http://www.w3.org/2000/svg" xmlns:xlink="http://www.w3.org/1999/xlink" x="0px" y="0px"
	 width="457.5px" height="87.8px" viewBox="0 0 457.5 87.8" enable-background="new 0 0 457.5 87.8" xml:space="preserve">
<g>
	<g>
		<g>
			<path fill="#34495E" d="M139.5,57.2c-1,0.6-2.1,1-3.3,1.4c-1.2,0.4-2.3,0.7-3.5,0.9c-1.1,0.2-2.2,0.4-3.2,0.5s-1.8,0.2-2.4,0.2
				c-2.6,0-5-0.4-7.2-1.3c-2.2-0.9-4-2.1-5.6-3.7s-2.8-3.4-3.6-5.6s-1.3-4.5-1.3-7.1c0-2.8,0.5-5.2,1.5-7.4c1-2.1,2.3-3.9,4-5.4
				c1.7-1.5,3.7-2.6,6.1-3.3c2.3-0.8,4.9-1.1,7.6-1.1c1.5,0,3,0.1,4.4,0.3c1.4,0.2,2.8,0.4,4.1,0.7c0.2,0,0.3,0.1,0.4,0.2
				c0.1,0.1,0.2,0.3,0.2,0.4c0,0.3,0,0.6,0.1,1c0,0.4,0.1,0.9,0.1,1.4c0,0.5,0,1,0.1,1.5c0,0.5,0.1,1,0.1,1.4c0,0.4,0,0.8,0,1.1
				c0,0.3,0,0.5,0,0.6l-1.4,0.1c-0.1-1.2-0.5-2.2-1-3s-1.3-1.5-2.2-2c-0.9-0.5-1.8-0.9-2.8-1.1c-1-0.2-2.1-0.3-3.1-0.3
				c-2.1,0-3.9,0.3-5.4,1s-2.8,1.6-3.8,2.8c-1,1.2-1.8,2.6-2.3,4.3c-0.5,1.7-0.8,3.4-0.8,5.4c0,2.3,0.3,4.4,0.9,6.3
				c0.6,2,1.5,3.6,2.8,5.1c1.2,1.4,2.8,2.6,4.6,3.4s4,1.2,6.5,1.2c1.5,0,2.9-0.2,4.3-0.5s2.8-0.8,4.2-1.3L139.5,57.2z"/>
			<path fill="#34495E" d="M169.2,27c0-0.4,0.2-0.7,0.7-0.8c0.3-0.1,0.7-0.1,1-0.1s0.8-0.1,1.2-0.1c0.4,0,0.7-0.1,1-0.1
				c0.3,0,0.5,0,0.7,0c0.5,0,0.7,0.2,0.7,0.7v32c0,0.5-0.2,0.7-0.7,0.8c-0.3,0.1-0.7,0.1-1.1,0.2c-0.4,0-0.8,0.1-1.1,0.1
				c-0.4,0-0.7,0-1,0.1c-0.3,0-0.5,0-0.7,0c-0.5,0-0.7-0.2-0.7-0.7V42.7l-16.7,0.2v15.7c0,0.5-0.2,0.7-0.7,0.8
				c-0.3,0.1-0.7,0.1-1.1,0.2c-0.4,0-0.8,0.1-1.1,0.1c-0.4,0-0.7,0-1,0.1c-0.3,0-0.5,0-0.7,0c-0.5,0-0.7-0.2-0.7-0.7V30.7
				c0-0.5-0.1-1-0.2-1.3c-0.1-0.3-0.3-0.6-0.5-0.8c-0.2-0.2-0.4-0.3-0.7-0.4s-0.6-0.1-0.9-0.1c-0.4,0-0.8,0-1.3,0.1l-0.2-1.6
				c1-0.2,2-0.4,2.9-0.5c0.9-0.1,1.7-0.2,2.5-0.3c0.7-0.1,1.3-0.1,1.8-0.2c0.5,0,0.8-0.1,0.9-0.1c0.6,0,0.9,0.3,0.9,0.9v13.9h16.7
				V27z"/>
			<path fill="#34495E" d="M181.7,26.6c1-0.2,2-0.4,2.9-0.5c0.9-0.1,1.7-0.2,2.5-0.3c0.7-0.1,1.3-0.1,1.8-0.2c0.5,0,0.8-0.1,0.9-0.1
				c0.6,0,0.9,0.3,0.9,0.9v32.1c0,0.5-0.2,0.7-0.7,0.8c-0.3,0.1-0.7,0.1-1.1,0.2c-0.4,0-0.8,0.1-1.1,0.1c-0.4,0-0.7,0-1,0.1
				c-0.3,0-0.5,0-0.7,0c-0.5,0-0.7-0.2-0.7-0.7V30.7c0-0.5-0.1-1-0.2-1.3c-0.1-0.3-0.3-0.6-0.5-0.8c-0.2-0.2-0.4-0.3-0.7-0.4
				s-0.6-0.1-0.9-0.1c-0.4,0-0.8,0-1.3,0.1L181.7,26.6z"/>
			<path fill="#34495E" d="M208.5,42.2c1.5-0.1,2.8-0.3,3.9-0.6c1.1-0.3,2.1-0.8,2.8-1.4s1.3-1.4,1.7-2.4c0.4-1,0.6-2.1,0.6-3.5
				c0-1.1-0.2-2.1-0.6-2.9c-0.4-0.8-1-1.5-1.7-2.1c-0.7-0.5-1.6-0.9-2.6-1.2c-1-0.3-2.1-0.4-3.3-0.4c-0.8,0-1.3,0.1-1.7,0.2
				c-0.4,0.1-0.6,0.5-0.6,1v29.7c0,0.5-0.2,0.7-0.7,0.8c-0.3,0.1-0.7,0.1-1.1,0.2c-0.4,0-0.8,0.1-1.1,0.1c-0.4,0-0.7,0-1,0.1
				c-0.3,0-0.5,0-0.7,0c-0.5,0-0.7-0.2-0.7-0.7V30.3c0-1-0.2-1.6-0.6-1.9s-1-0.5-1.6-0.5c-0.4,0-0.8,0-1.3,0.1l-0.2-1.6
				c1.9-0.3,3.9-0.6,5.9-0.8c2.1-0.2,4.1-0.3,6.3-0.3c0.9,0,1.9,0,2.9,0.1c1,0.1,2,0.2,3,0.4c1,0.2,1.9,0.5,2.8,0.9s1.6,0.9,2.3,1.5
				c0.7,0.6,1.2,1.3,1.6,2.2c0.4,0.8,0.6,1.9,0.6,3c0,1.2-0.2,2.3-0.6,3.3s-0.9,1.8-1.5,2.5s-1.4,1.3-2.3,1.9
				c-0.9,0.5-1.8,1-2.8,1.3v0.2c0.5,0.1,1,0.2,1.5,0.4s1.1,0.5,1.6,0.9c0.5,0.4,1,0.8,1.5,1.4c0.4,0.6,0.8,1.3,1.1,2.1l2.1,6.6
				c0.3,0.9,0.5,1.6,0.8,2.1s0.5,0.9,0.8,1.2c0.3,0.3,0.6,0.5,0.9,0.5c0.3,0.1,0.8,0.1,1.3,0.1l0.1,1.5c-0.4,0.1-0.8,0.1-1.2,0.2
				c-0.4,0.1-0.9,0.1-1.3,0.2c-0.4,0-0.8,0.1-1.1,0.1c-0.3,0-0.6,0-0.8,0c-0.6,0-1.2-0.1-1.6-0.2s-0.9-0.4-1.3-0.7s-0.7-0.8-1-1.4
				s-0.6-1.3-0.8-2.2l-2-7c-0.3-1-0.6-1.8-1-2.4s-0.9-1-1.5-1.4c-0.6-0.3-1.3-0.5-2.2-0.6c-0.8-0.1-1.9-0.2-3.1-0.2L208.5,42.2z"/>
			<path fill="#34495E" d="M247.9,25.3c2.5,0,4.7,0.4,6.7,1.1s3.7,1.9,5.1,3.3s2.5,3.2,3.2,5.3c0.8,2.1,1.1,4.5,1.1,7.1
				c0,2.9-0.4,5.5-1.3,7.7c-0.8,2.2-2.1,4.1-3.6,5.6c-1.6,1.5-3.4,2.7-5.7,3.5c-2.2,0.8-4.7,1.2-7.4,1.2c-2.5,0-4.7-0.4-6.7-1.2
				c-2-0.8-3.7-1.9-5.1-3.4c-1.4-1.5-2.5-3.3-3.2-5.4c-0.8-2.1-1.1-4.5-1.1-7.2c0-2.9,0.4-5.4,1.3-7.6c0.8-2.2,2.1-4.1,3.6-5.6
				s3.4-2.6,5.7-3.4C242.7,25.7,245.2,25.3,247.9,25.3z M246.5,27.7c-1.9,0-3.5,0.4-4.8,1.1c-1.3,0.8-2.4,1.8-3.3,3.1
				c-0.8,1.3-1.5,2.7-1.9,4.4c-0.4,1.7-0.6,3.4-0.6,5.2c0,2,0.2,4,0.6,5.9c0.4,1.9,1.1,3.7,2,5.2c0.9,1.5,2.1,2.8,3.6,3.7
				s3.3,1.4,5.4,1.4c1.9,0,3.5-0.4,4.8-1.2c1.3-0.8,2.4-1.8,3.3-3.1c0.8-1.3,1.5-2.8,1.9-4.5c0.4-1.7,0.6-3.4,0.6-5.2
				c0-2-0.2-4-0.6-5.9c-0.4-1.9-1.1-3.6-2-5.1c-0.9-1.5-2.1-2.7-3.6-3.6C250.4,28.2,248.6,27.7,246.5,27.7z"/>
			<path fill="#34495E" d="M273.5,57c0,1.1-0.3,1.9-0.9,2.4c-0.6,0.5-1.4,0.7-2.5,0.7c-0.9,0-1.6-0.3-2.1-0.8s-0.7-1.3-0.7-2.3
				c0-1.1,0.3-1.9,0.9-2.4c0.6-0.5,1.5-0.8,2.5-0.8c0.9,0,1.6,0.3,2.1,0.8C273.2,55.3,273.5,56,273.5,57z"/>
			<path fill="#34495E" d="M286.5,54.9c0,0.5,0,0.8,0,1.1c0,0.3,0.1,0.5,0.2,0.6c0.1,0.1,0.3,0.2,0.6,0.3c0.3,0,0.7,0.1,1.2,0.1h3.7
				c1.5,0,2.8,0,3.7-0.1c1-0.1,1.8-0.3,2.4-0.7s1.3-1,1.8-1.8s1.1-2,1.7-3.4l1.4,0.3c0,0.1,0,0.5-0.1,1c-0.1,0.6-0.2,1.2-0.3,1.9
				s-0.3,1.5-0.5,2.2c-0.2,0.8-0.3,1.4-0.5,2c-0.2,0.6-0.7,1-1.4,1c-0.7,0-1.5,0-2.5,0c-1,0-2.1,0-3.2,0c-1.2,0-2.5,0-3.8,0
				c-1.4,0-2.8,0-4.3,0h-4.8c-0.3,0-0.4-0.1-0.5-0.2s-0.1-0.3-0.1-0.5V31.1c0-1-0.2-1.6-0.7-1.9c-0.4-0.3-1-0.5-1.6-0.5
				c-0.4,0-0.8,0-1.2,0.1l-0.2-1.6c0.4-0.1,1-0.2,1.7-0.3c0.8-0.1,1.6-0.2,2.4-0.3c0.8-0.1,1.6-0.2,2.4-0.3c0.8-0.1,1.4-0.1,1.8-0.1
				h10.4c0.6,0,1.3,0,2,0c0.7,0,1.5,0,2.3,0c0.3,0,0.5,0.1,0.5,0.4c0,0.3,0,0.6,0.1,1.1c0,0.4,0.1,0.9,0.1,1.4s0,1,0.1,1.6
				c0,0.5,0.1,1,0.1,1.5c0,0.5,0,0.8,0,1.2c0,0.3,0,0.5,0,0.6l-1.4,0.1c-0.3-1.4-0.7-2.4-1-3.1c-0.3-0.7-0.8-1.3-1.3-1.6
				c-0.5-0.3-1.2-0.5-2-0.6c-0.8-0.1-1.8-0.1-3.1-0.1h-5c-0.3,0-0.6,0-0.7,0c-0.2,0-0.3,0.1-0.4,0.1c-0.1,0.1-0.1,0.2-0.1,0.3
				c0,0.1,0,0.3,0,0.6v11.6c1.6-0.1,3-0.1,4.3-0.2c1.3-0.1,2.4-0.1,3.4-0.2c1,0,1.7-0.1,2.3-0.1c0.6,0,1,0,1.1,0
				c0.5,0,0.8,0.3,0.8,0.9c0,0.4,0,0.7-0.1,1.1c0,0.4-0.1,0.8-0.1,1.2l-11.7-0.4V54.9z"/>
			<path fill="#34495E" d="M305.8,26.6c0.8-0.2,1.7-0.3,2.5-0.4c0.8-0.1,1.6-0.2,2.2-0.3s1.3-0.2,1.7-0.2c0.5,0,0.8-0.1,0.9-0.1
				c0.3,0,0.5,0.1,0.6,0.2c0.1,0.2,0.3,0.4,0.5,0.7l6.8,11.4l7-11c0,0,0,0,0,0s0,0,0,0c0.2-0.2,0.3-0.4,0.4-0.5
				c0.1-0.1,0.3-0.2,0.6-0.3s0.6-0.1,0.9-0.2c0.3,0,0.6-0.1,0.9-0.1c0.3,0,0.5,0,0.8-0.1s0.4,0,0.6,0c0.4,0,0.5,0.1,0.5,0.4
				c0,0.2-0.1,0.3-0.2,0.5l-9.8,14.2l10.4,17.7c0.1,0.1,0.1,0.2,0.1,0.3c0,0.3-0.2,0.5-0.6,0.5c-0.3,0.1-0.7,0.1-1.2,0.2
				c-0.4,0-0.9,0.1-1.3,0.1c-0.4,0-0.8,0-1.2,0.1c-0.4,0-0.6,0-0.8,0c-0.3,0-0.6-0.2-0.8-0.5l-8.3-14L311,58.5
				c-0.1,0.2-0.3,0.4-0.4,0.5c-0.1,0.1-0.3,0.2-0.6,0.3c-0.3,0.1-0.6,0.1-0.9,0.2c-0.3,0-0.6,0.1-0.9,0.1c-0.3,0-0.6,0-0.8,0
				s-0.4,0-0.6,0c-0.4,0-0.5-0.1-0.5-0.4c0-0.2,0.1-0.3,0.2-0.5l11.1-16.5l-7.3-12.3c-0.5-0.8-1-1.4-1.4-1.6c-0.4-0.3-1-0.4-1.6-0.4
				c-0.2,0-0.4,0-0.6,0c-0.2,0-0.4,0-0.6,0.1L305.8,26.6z"/>
			<path fill="#34495E" d="M347.7,44c1.5-0.1,2.9-0.3,4-0.7s2.2-0.8,3-1.5c0.8-0.7,1.4-1.5,1.8-2.5c0.4-1,0.6-2.2,0.6-3.7
				c0-1.3-0.2-2.4-0.6-3.4c-0.4-1-1-1.8-1.7-2.5s-1.6-1.2-2.7-1.5c-1-0.4-2.2-0.5-3.4-0.5c-0.9,0-1.5,0.1-1.9,0.2
				c-0.4,0.1-0.7,0.5-0.7,1.1v29.7c0,0.5-0.2,0.7-0.7,0.8c-0.3,0.1-0.7,0.1-1.1,0.2s-0.8,0.1-1.1,0.1c-0.4,0-0.7,0-1,0.1
				c-0.3,0-0.5,0-0.7,0c-0.5,0-0.7-0.2-0.7-0.7V30.4c0-1-0.2-1.6-0.6-1.9s-1-0.5-1.6-0.5c-0.4,0-0.8,0-1.3,0.1l-0.2-1.6
				c1.7-0.3,3.5-0.6,5.5-0.8s4.2-0.4,6.6-0.4c1.1,0,2.3,0.1,3.4,0.2c1.1,0.1,2.2,0.3,3.2,0.6c1,0.3,2,0.6,2.9,1.1s1.7,1,2.3,1.7
				s1.2,1.5,1.5,2.4c0.4,0.9,0.6,2,0.6,3.3c0,2-0.4,3.7-1.3,5c-0.8,1.4-2,2.5-3.3,3.4c-1.4,0.9-3,1.5-4.8,1.9s-3.7,0.7-5.6,0.7
				L347.7,44z"/>
			<path fill="#34495E" d="M375.4,54.9c0,0.5,0,0.8,0,1.1c0,0.3,0.1,0.5,0.2,0.6c0.1,0.1,0.3,0.2,0.6,0.3c0.3,0,0.7,0.1,1.2,0.1h3.7
				c1.5,0,2.8,0,3.7-0.1c1-0.1,1.8-0.3,2.4-0.7s1.3-1,1.8-1.8c0.5-0.8,1.1-2,1.7-3.4l1.4,0.3c0,0.1,0,0.5-0.1,1
				c-0.1,0.6-0.2,1.2-0.3,1.9c-0.1,0.7-0.3,1.5-0.5,2.2c-0.2,0.8-0.3,1.4-0.5,2c-0.2,0.6-0.7,1-1.4,1c-0.7,0-1.5,0-2.5,0
				s-2.1,0-3.2,0c-1.2,0-2.5,0-3.8,0s-2.8,0-4.3,0h-4.8c-0.3,0-0.4-0.1-0.5-0.2c-0.1-0.2-0.1-0.3-0.1-0.5V31.1c0-1-0.2-1.6-0.7-1.9
				c-0.4-0.3-1-0.5-1.6-0.5c-0.4,0-0.8,0-1.2,0.1l-0.2-1.6c0.4-0.1,1-0.2,1.7-0.3c0.8-0.1,1.6-0.2,2.4-0.3c0.8-0.1,1.6-0.2,2.4-0.3
				c0.8-0.1,1.4-0.1,1.8-0.1h10.4c0.6,0,1.3,0,2,0c0.7,0,1.5,0,2.3,0c0.3,0,0.5,0.1,0.5,0.4c0,0.3,0,0.6,0.1,1.1s0.1,0.9,0.1,1.4
				c0,0.5,0,1,0.1,1.6c0,0.5,0.1,1,0.1,1.5c0,0.5,0,0.8,0,1.2c0,0.3,0,0.5,0,0.6l-1.4,0.1c-0.3-1.4-0.7-2.4-1-3.1s-0.8-1.3-1.3-1.6
				s-1.2-0.5-2-0.6s-1.8-0.1-3.1-0.1h-5c-0.3,0-0.6,0-0.7,0c-0.2,0-0.3,0.1-0.4,0.1c-0.1,0.1-0.1,0.2-0.1,0.3s0,0.3,0,0.6v11.6
				c1.6-0.1,3-0.1,4.3-0.2s2.4-0.1,3.4-0.2c1,0,1.7-0.1,2.3-0.1c0.6,0,1,0,1.1,0c0.5,0,0.8,0.3,0.8,0.9c0,0.4,0,0.7-0.1,1.1
				c0,0.4-0.1,0.8-0.1,1.2l-11.7-0.4V54.9z"/>
			<path fill="#34495E" d="M406.6,42.2c1.5-0.1,2.8-0.3,3.9-0.6c1.1-0.3,2.1-0.8,2.8-1.4s1.3-1.4,1.7-2.4c0.4-1,0.6-2.1,0.6-3.5
				c0-1.1-0.2-2.1-0.6-2.9c-0.4-0.8-1-1.5-1.7-2.1c-0.7-0.5-1.6-0.9-2.6-1.2c-1-0.3-2.1-0.4-3.3-0.4c-0.8,0-1.3,0.1-1.7,0.2
				c-0.4,0.1-0.6,0.5-0.6,1v29.7c0,0.5-0.2,0.7-0.7,0.8c-0.3,0.1-0.7,0.1-1.1,0.2s-0.8,0.1-1.1,0.1c-0.4,0-0.7,0-1,0.1
				c-0.3,0-0.5,0-0.7,0c-0.5,0-0.7-0.2-0.7-0.7V30.3c0-1-0.2-1.6-0.6-1.9s-1-0.5-1.6-0.5c-0.4,0-0.8,0-1.3,0.1l-0.2-1.6
				c1.9-0.3,3.9-0.6,5.9-0.8s4.1-0.3,6.3-0.3c0.9,0,1.9,0,2.9,0.1c1,0.1,2,0.2,3,0.4c1,0.2,1.9,0.5,2.8,0.9c0.9,0.4,1.6,0.9,2.3,1.5
				c0.7,0.6,1.2,1.3,1.6,2.2c0.4,0.8,0.6,1.9,0.6,3c0,1.2-0.2,2.3-0.6,3.3c-0.4,0.9-0.9,1.8-1.5,2.5s-1.4,1.3-2.3,1.9
				c-0.9,0.5-1.8,1-2.8,1.3v0.2c0.5,0.1,1,0.2,1.5,0.4c0.6,0.2,1.1,0.5,1.6,0.9c0.5,0.4,1,0.8,1.5,1.4c0.4,0.6,0.8,1.3,1.1,2.1
				l2.1,6.6c0.3,0.9,0.5,1.6,0.8,2.1s0.5,0.9,0.8,1.2c0.3,0.3,0.6,0.5,0.9,0.5c0.3,0.1,0.8,0.1,1.3,0.1l0.1,1.5
				c-0.4,0.1-0.8,0.1-1.2,0.2c-0.4,0.1-0.9,0.1-1.3,0.2c-0.4,0-0.8,0.1-1.1,0.1c-0.3,0-0.6,0-0.8,0c-0.6,0-1.2-0.1-1.6-0.2
				s-0.9-0.4-1.3-0.7c-0.4-0.4-0.7-0.8-1-1.4c-0.3-0.6-0.6-1.3-0.8-2.2l-2-7c-0.3-1-0.6-1.8-1-2.4s-0.9-1-1.5-1.4
				c-0.6-0.3-1.3-0.5-2.2-0.6c-0.8-0.1-1.9-0.2-3.1-0.2L406.6,42.2z"/>
			<path fill="#34495E" d="M434.8,28.5c-1.2,0-2.3,0-3.1,0.1c-0.8,0.1-1.5,0.3-2,0.7c-0.5,0.4-1,1-1.3,1.8c-0.4,0.8-0.7,1.9-1,3.4
				l-1.4-0.1c0-0.1,0-0.3,0-0.6c0-0.3,0-0.8,0.1-1.2c0-0.5,0.1-1,0.1-1.6c0-0.6,0.1-1.1,0.1-1.7c0-0.5,0.1-1,0.1-1.5
				c0-0.5,0.1-0.8,0.1-1.1c0-0.3,0.2-0.4,0.5-0.4c1.7,0,3.4,0.1,5,0.1s3,0,4.4,0h9.5c1.3,0,2.8,0,4.4,0c1.6,0,3.3,0,5-0.1
				c0.3,0,0.4,0.1,0.5,0.4c0,0.3,0.1,0.6,0.1,1.1c0,0.5,0.1,1,0.1,1.5c0,0.5,0.1,1.1,0.1,1.7s0,1.1,0,1.6c0,0.5,0,0.9,0,1.2
				c0,0.3,0,0.6,0,0.6l-1.4,0.1c-0.3-1.4-0.7-2.6-1-3.4c-0.3-0.8-0.8-1.4-1.3-1.8s-1.2-0.6-2-0.7c-0.8-0.1-1.8-0.1-3.1-0.1h-3.7
				v30.1c0,0.5-0.2,0.7-0.7,0.8c-0.3,0.1-0.7,0.1-1.1,0.2s-0.8,0.1-1.1,0.1c-0.4,0-0.7,0-1,0.1c-0.3,0-0.5,0-0.7,0
				c-0.5,0-0.7-0.2-0.7-0.7V28.5H434.8z"/>
		</g>
	</g>
	<g>
		<g>
			<path fill="#34495E" d="M87.8,43.9C87.8,56,83.5,66.4,75,75C66.4,83.5,56,87.8,43.9,87.8c-12.1,0-22.5-4.3-31.1-12.8
				C4.3,66.4,0,56,0,43.9c0-12.1,4.3-22.5,12.8-31.1C21.4,4.3,31.8,0,43.9,0C56,0,66.4,4.3,75,12.8C83.5,21.4,87.8,31.8,87.8,43.9z
				 M43.9,43.2l0.1,1.4c0.3,5.7,2.4,10.4,6.3,14.1c3.9,3.8,8.6,5.6,14.2,5.6c5.8,0,10.6-2,14.6-6.1c3.9-4.1,5.9-9.1,5.9-15
				c0-11-4-20.5-12.1-28.4c-8.1-8-17.7-11.9-28.9-11.9c-11.4,0-21,3.8-28.6,11.4C7.7,21.9,3.6,31.8,2.9,43.9
				c0.9-6.7,3-11.8,6.5-15.3c3.5-3.5,8.1-5.2,14-5.2c5.6,0,10.3,1.9,14.2,5.7C41.5,32.8,43.6,37.5,43.9,43.2z M29.3,43.9
				c0-1.6-0.6-3-1.7-4.2c-1.1-1.1-2.5-1.7-4.1-1.7c-1.6,0-3,0.6-4.2,1.7c-1.1,1.1-1.7,2.5-1.7,4.2c0,1.6,0.6,3,1.7,4.2
				c1.1,1.1,2.5,1.7,4.2,1.7c1.6,0,2.9-0.6,4.1-1.8C28.7,46.9,29.3,45.5,29.3,43.9z M70.2,43.9c0,1.6-0.6,3-1.7,4.2
				c-1.1,1.1-2.5,1.7-4.1,1.7c-1.6,0-3-0.6-4.2-1.7c-1.1-1.1-1.7-2.5-1.7-4.2c0-1.6,0.6-3,1.7-4.2c1.1-1.1,2.5-1.7,4.2-1.7
				c1.6,0,3,0.6,4.1,1.7C69.7,40.9,70.2,42.3,70.2,43.9z"/>
		</g>
	</g>
</g>
</svg>
