<?xml version="1.0" encoding="utf-8"?>
<!-- Generator: Adobe Illustrator 18.1.1, SVG Export Plug-In . SVG Version: 6.00 Build 0)  -->
<svg version="1.1" id="Layer_1" xmlns="http://www.w3.org/2000/svg" xmlns:xlink="http://www.w3.org/1999/xlink" x="0px" y="0px"
	 viewBox="0 0 848.4 244.4" enable-background="new 0 0 848.4 244.4" xml:space="preserve">
<path fill="#1B516D" d="M189.8,195.6c0,0-0.3,0.5-1,1.5c-0.7,1-1.5,2.4-3,4.4c-0.7,1-1.5,2.1-2.4,3.2c-0.9,1.1-1.9,2.4-3,3.7
	c-1.2,1.3-2.4,2.7-3.7,4.1c-1.4,1.4-2.8,2.9-4.5,4.4c-0.8,0.7-1.7,1.5-2.5,2.3c-0.9,0.7-1.8,1.5-2.8,2.3c-0.9,0.8-2,1.5-3,2.3
	c-1,0.8-2.1,1.6-3.2,2.3c-4.4,3.1-9.5,6-15.1,8.7c-5.7,2.6-11.9,4.9-18.7,6.6c-6.8,1.7-14.2,2.8-21.9,3c-7.7,0.2-15.9-0.5-24.1-2.3
	c-8.2-1.7-16.4-4.7-24.4-8.7c-1-0.5-2-1-3-1.6c-1-0.5-2-1.1-2.9-1.6c-1-0.6-1.9-1.2-2.9-1.8l-1.4-0.9l-0.3-0.2l-0.2-0.1l-0.3-0.2
	l-0.7-0.5c-0.9-0.6-1.8-1.2-2.6-1.9c-0.9-0.6-1.9-1.4-2.8-2.1c-1.9-1.4-3.6-3-5.4-4.5c-3.4-3.2-6.8-6.5-9.8-10.2
	c-1.6-1.8-3-3.7-4.4-5.6c-0.7-1-1.4-2-2.1-3l-1-1.5l-1-1.5c-5.1-8.2-9.1-17.3-11.8-26.8c-1.4-4.8-2.3-9.7-3-14.6
	c-0.6-5-0.9-10-0.8-15c0.1-5,0.6-10,1.4-15c0.8-5,2.1-9.9,3.6-14.7c1.5-4.8,3.5-9.5,5.7-14l1.8-3.3c0.6-1.1,1.3-2.2,1.9-3.3
	c0.6-1.1,1.3-2.2,2-3.2l2.1-3.2c2.8-3.9,6-8,9.4-11.6c3.5-3.6,7.1-7,11-10.1c3.9-3,8-5.9,12.2-8.3c4.3-2.4,8.7-4.6,13.2-6.4
	c9-3.6,18.5-5.9,27.9-6.8c9.4-0.9,18.9-0.6,27.9,1l1.7,0.3l1.7,0.4c1.1,0.2,2.2,0.5,3.3,0.7c2.2,0.6,4.4,1.1,6.5,1.9
	c4.3,1.3,8.4,3,12.4,4.8c2,1,4,1.9,5.9,3c0.9,0.5,1.9,1,2.8,1.6c0.9,0.6,1.8,1.1,2.7,1.7c0.9,0.6,1.8,1.2,2.7,1.8
	c0.9,0.6,1.8,1.2,2.6,1.8c0.8,0.6,1.7,1.3,2.5,1.9c0.8,0.6,1.7,1.3,2.5,2c1.6,1.4,3.2,2.7,4.7,4.1c0.7,0.7,1.5,1.4,2.2,2.1
	c0.7,0.7,1.4,1.5,2.1,2.2c0.7,0.7,1.4,1.5,2.1,2.2c0.7,0.8,1.3,1.5,2,2.3c1.3,1.6,2.5,3.1,3.7,4.7c4.7,6.4,8.7,13,11.7,19.7
	c6.1,13.5,8.7,27.1,9.1,39.2c0.4,12.1-1.5,22.7-4,31.1c-2.4,8.4-5.5,14.7-7.7,18.9c-1.1,2.1-2.1,3.6-2.7,4.7
	C190.1,195,189.8,195.5,189.8,195.6L189.8,195.6z M184.3,191.9c0,0,0.3-0.5,0.9-1.5c0.6-1,1.6-2.4,2.7-4.3c2.3-3.8,5.4-9.6,8.1-17.4
	c0.3-1,0.7-2,1-3c0.3-1.1,0.6-2.1,0.9-3.2c0.3-1.1,0.6-2.3,0.9-3.4c0.3-1.2,0.6-2.4,0.8-3.6c1-4.9,1.7-10.4,1.8-16.2
	c0.4-11.7-1.4-25.1-6.7-38.7c-2.7-6.7-6.3-13.5-10.8-19.9c-4.5-6.4-10.1-12.5-16.5-17.9c-6.4-5.4-13.8-10-21.8-13.8
	c-4-1.8-8.2-3.5-12.5-4.7c-2.1-0.7-4.3-1.2-6.5-1.8c-1.1-0.2-2.2-0.5-3.3-0.7l-1.7-0.3l-1.7-0.3c-18-2.8-37.5-0.4-54.8,7.6
	c-8.6,4-16.8,9.1-23.9,15.5c-3.6,3.2-6.9,6.6-10,10.3c-3.1,3.7-5.7,7.4-8.4,11.6l-1.7,3c-0.6,1-1.1,2.1-1.7,3.1
	c-0.5,1.1-1.1,2.1-1.6,3.2l-1.5,3.2c-1.8,4.4-3.4,8.8-4.6,13.4c-1.1,4.6-2.1,9.1-2.6,13.8c-0.5,4.6-0.7,9.3-0.5,13.9
	c0.3,9.2,2,18.2,4.7,26.7c2.8,8.5,6.7,16.5,11.5,23.7l0.9,1.4l1,1.3c0.6,0.9,1.3,1.7,1.9,2.6c1.4,1.7,2.6,3.4,4.1,4.9
	c2.8,3.2,5.8,6.1,8.9,8.9c1.6,1.3,3.2,2.7,4.8,3.8c0.8,0.6,1.5,1.2,2.4,1.8c0.9,0.6,1.8,1.2,2.7,1.8l0.7,0.5l0.3,0.2l0.2,0.1
	c0.1,0.1-0.1-0.1,0,0l1.3,0.8c0.9,0.5,1.7,1.1,2.6,1.6c0.9,0.5,1.7,1,2.6,1.4c0.9,0.5,1.7,1,2.6,1.4c1.8,0.9,3.5,1.7,5.3,2.5
	c0.9,0.4,1.8,0.8,2.7,1.1c0.9,0.3,1.8,0.7,2.7,1c0.9,0.4,1.8,0.7,2.7,0.9c0.9,0.3,1.8,0.6,2.7,0.9c1.8,0.5,3.6,1,5.4,1.4
	c7.2,1.6,14.4,2.5,21.3,2.6c6.9,0.1,13.5-0.6,19.8-1.8c6.2-1.2,12-3,17.3-5.1c10.6-4.2,18.9-9.8,25.2-15
	c6.3-5.2,10.6-10.2,13.3-13.6c1.4-1.6,2.4-3.2,3.1-4.1C184,192.3,184.4,191.8,184.3,191.9L184.3,191.9z"/>
<g>
	<g>
		<path fill="#34495E" d="M267.7,101.1c0-1.2-0.1-2.3-0.2-3.3c-0.1-1-0.4-1.9-0.9-2.6c-0.5-0.7-1.2-1.3-2.1-1.7
			c-0.9-0.4-2.2-0.6-3.8-0.6c-2.3,0-4.3,0.4-5.9,1.2c-1.6,0.8-2.9,1.8-3.9,3.2c-1,1.3-1.7,2.9-2.2,4.7c-0.5,1.8-0.7,3.7-0.7,5.7
			c0,2.8,0.4,5.4,1.1,7.9c0.7,2.4,1.9,4.6,3.4,6.4c1.5,1.8,3.4,3.3,5.8,4.3c2.3,1,5.1,1.6,8.3,1.6c0.8,0,1.8-0.1,2.8-0.2
			c1-0.1,2.1-0.3,3.2-0.5c1.1-0.2,2.1-0.4,3.2-0.7c1-0.3,2-0.5,2.9-0.8l1.4,3.5c-2,0.9-4,1.7-6.2,2.5c-2.2,0.8-4.3,1.4-6.3,2
			c-2,0.6-3.9,1-5.7,1.3c-1.7,0.3-3.2,0.5-4.3,0.5c-3.3,0-6.3-0.6-8.8-1.9c-2.6-1.2-4.7-2.9-6.4-5c-1.7-2.1-3.1-4.5-4-7.3
			c-0.9-2.7-1.4-5.6-1.4-8.6c0-3.9,0.7-7.4,2.2-10.5c1.5-3.1,3.4-5.8,6-8c2.5-2.2,5.5-3.9,8.9-5.1c3.4-1.2,7.1-1.8,11-1.8
			c1.6,0,3.1,0.1,4.7,0.4c1.6,0.3,3,0.8,4.2,1.5c1.2,0.7,2.3,1.6,3,2.8c0.8,1.2,1.2,2.6,1.2,4.4c0,2.2-0.7,3.8-2.2,4.8
			c-1.5,1-3.3,1.5-5.4,1.5c-0.9,0-1.8-0.1-2.7-0.2V101.1z"/>
		<path fill="#34495E" d="M282.2,53.8c4.6-1.2,8.3-2.1,11.3-2.6c2.9-0.5,4.7-0.8,5.3-0.8c1.3,0,2,0.7,2,2.2v39.8
			c1.9-0.7,3.8-1.4,5.8-2c1.9-0.6,3.8-1.2,5.5-1.6c1.7-0.5,3.3-0.8,4.8-1.1c1.5-0.3,2.7-0.4,3.7-0.4c2.4,0,4.4,0.4,6.1,1.1
			c1.7,0.7,3.1,1.8,4.1,3.1c1.1,1.3,1.9,2.9,2.4,4.8c0.5,1.9,0.7,4,0.7,6.3l-0.3,29.9c0,1-0.5,1.6-1.5,1.7c-0.7,0.1-1.4,0.2-2.2,0.3
			c-0.8,0.1-1.6,0.2-2.4,0.2c-0.8,0.1-1.5,0.1-2.1,0.1c-0.6,0-1.1,0-1.4,0c-1,0-1.5-0.5-1.5-1.6l0.3-24.8v-0.9
			c0-2.2-0.2-4.2-0.5-5.9c-0.4-1.7-0.9-3.1-1.8-4.3c-0.8-1.2-1.9-2-3.2-2.6c-1.3-0.6-3-0.9-5-0.9c-0.7,0-2.1,0.2-4.2,0.6
			c-2.1,0.4-4.5,1.2-7.3,2.4v35.4c0,1-0.5,1.6-1.5,1.7c-0.7,0.1-1.4,0.2-2.2,0.3c-0.8,0.1-1.6,0.2-2.4,0.2c-0.8,0.1-1.5,0.1-2.1,0.1
			c-0.6,0-1.1,0-1.4,0c-1,0-1.5-0.5-1.5-1.6V62.3c0-2.2-0.4-3.7-1.1-4.5c-0.7-0.8-1.9-1.2-3.5-1.2c-0.8,0-1.6,0.1-2.6,0.2
			L282.2,53.8z"/>
		<path fill="#34495E" d="M342.9,91c2.2-0.6,4.3-1.2,6.2-1.6c1.9-0.4,3.6-0.8,5.1-1.1c1.5-0.3,2.7-0.5,3.6-0.6
			c0.9-0.1,1.5-0.2,1.8-0.2c1.3,0,2,0.7,2,2.2v42.7c0,1-0.5,1.6-1.5,1.7c-0.7,0.1-1.5,0.2-2.3,0.3c-0.8,0.1-1.6,0.2-2.3,0.2
			c-0.7,0.1-1.4,0.1-2.1,0.1c-0.6,0-1.1,0-1.4,0c-1,0-1.5-0.5-1.5-1.6V99.4c0-2.2-0.4-3.7-1.1-4.5c-0.7-0.8-1.8-1.2-3.3-1.2
			c-0.5,0-0.9,0-1.3,0c-0.4,0-1,0.1-1.6,0.2L342.9,91z M362.1,68.1c0,2.2-0.6,3.9-1.8,4.9c-1.2,1-2.9,1.5-5.1,1.5
			c-1.9,0-3.3-0.6-4.3-1.7c-1-1.1-1.5-2.7-1.5-4.7c0-2.2,0.6-3.8,1.8-4.8c1.2-1,3-1.5,5.2-1.5c1.9,0,3.3,0.6,4.2,1.6
			C361.6,64.6,362.1,66.1,362.1,68.1z"/>
		<path fill="#34495E" d="M371.5,91c2.2-0.6,4.3-1.2,6.2-1.6c1.9-0.4,3.6-0.8,5.1-1.1c1.5-0.3,2.7-0.5,3.6-0.6
			c0.9-0.1,1.5-0.2,1.8-0.2c1.3,0,2,0.7,2,2.2v3.2c1.4-0.8,2.9-1.5,4.4-2.2c1.5-0.7,3-1.3,4.4-1.8c1.4-0.5,2.8-0.9,4.1-1.2
			c1.3-0.3,2.5-0.4,3.5-0.4c1.1,0,2.1,0.2,3,0.6c0.8,0.4,1.6,0.9,2.2,1.6c0.6,0.7,1,1.4,1.3,2.2c0.3,0.8,0.4,1.7,0.4,2.6
			c0,0.9-0.2,1.8-0.5,2.6c-0.3,0.9-0.8,1.6-1.4,2.3c-0.6,0.7-1.4,1.2-2.4,1.6c-1,0.4-2.1,0.6-3.4,0.6h-1.3c-0.2,0-0.4,0-0.7,0
			c-0.2,0-0.5-0.1-0.7-0.1v-1.4c0-1.9-0.4-3.2-1.2-4c-0.8-0.8-1.8-1.2-3-1.2c-1.2,0-2.6,0.3-4.2,0.8c-1.6,0.5-3.1,1.2-4.6,2.1v35
			c0,1-0.5,1.6-1.5,1.7c-0.7,0.1-1.5,0.2-2.3,0.3c-0.8,0.1-1.6,0.2-2.3,0.2c-0.7,0.1-1.4,0.1-2.1,0.1c-0.6,0-1.1,0-1.4,0
			c-1,0-1.5-0.5-1.5-1.6V99.4c0-2.2-0.4-3.7-1.1-4.5c-0.7-0.8-1.8-1.2-3.3-1.2c-0.5,0-0.9,0-1.3,0c-0.4,0-1,0.1-1.6,0.2L371.5,91z"
			/>
		<path fill="#34495E" d="M438.6,135.4c-3.4,0-6.6-0.6-9.4-1.8c-2.8-1.2-5.2-2.9-7.3-5c-2-2.1-3.6-4.6-4.7-7.5
			c-1.1-2.9-1.6-6-1.6-9.3c0-3.7,0.6-7,1.9-10c1.3-3,3-5.6,5.3-7.8c2.2-2.1,4.9-3.8,8-5c3.1-1.2,6.5-1.8,10.3-1.8
			c3.4,0,6.6,0.6,9.4,1.8c2.8,1.2,5.3,2.8,7.3,4.9c2,2.1,3.6,4.5,4.7,7.3c1.1,2.8,1.7,5.9,1.7,9.2c0,3.7-0.6,7.1-1.9,10.2
			c-1.2,3.1-3,5.7-5.3,7.9c-2.3,2.2-5,3.9-8.1,5.1C445.8,134.8,442.3,135.4,438.6,135.4z M441.5,129.9c2.2,0,4.1-0.5,5.5-1.5
			c1.5-1,2.6-2.2,3.4-3.8c0.8-1.5,1.4-3.3,1.7-5.2c0.3-1.9,0.5-3.8,0.5-5.6c0-2.2-0.2-4.6-0.7-7.1c-0.5-2.5-1.3-4.8-2.4-6.9
			c-1.1-2.1-2.6-3.8-4.4-5.2c-1.8-1.4-4.1-2.1-6.8-2.1c-2.2,0-4.1,0.5-5.5,1.5c-1.5,1-2.6,2.2-3.4,3.8c-0.8,1.6-1.4,3.3-1.7,5.2
			c-0.3,1.9-0.5,3.8-0.5,5.6c0,2.3,0.2,4.7,0.7,7.2c0.5,2.5,1.3,4.8,2.4,6.8c1.1,2.1,2.6,3.8,4.4,5.1
			C436.5,129.2,438.8,129.9,441.5,129.9z"/>
		<path fill="#34495E" d="M477.8,99.4c0-2.2-0.4-3.7-1.1-4.5c-0.7-0.8-1.8-1.2-3.4-1.2c-0.4,0-0.8,0-1.3,0c-0.4,0-1,0.1-1.6,0.2
			l-0.4-3c2.2-0.6,4.3-1.2,6.2-1.6c1.9-0.4,3.5-0.8,5-1.1c1.4-0.3,2.6-0.5,3.5-0.6c0.9-0.1,1.5-0.2,1.8-0.2c1.2,0,1.9,0.7,2.1,2.2
			l0.2,2.7c2-0.7,4.1-1.4,6.1-2c2-0.6,3.9-1.2,5.7-1.7c1.8-0.5,3.5-0.8,5-1.1c1.5-0.3,2.8-0.4,3.8-0.4c2.5,0,4.8,0.7,6.8,2
			c2,1.3,3.7,3.1,5.1,5.2c1.4,2.1,2.5,4.5,3.2,7.1c0.7,2.6,1.1,5.1,1.1,7.6c0,4.4-0.8,8.2-2.4,11.5c-1.6,3.3-3.7,6-6.4,8.2
			c-2.7,2.2-5.7,3.9-9.2,5c-3.4,1.1-7,1.6-10.8,1.6c-1.3,0-2.7-0.1-4-0.2c-1.3-0.1-2.7-0.4-4.1-0.7v26c0,1-0.5,1.6-1.5,1.7
			c-0.7,0.1-1.4,0.2-2.2,0.3c-0.8,0.1-1.6,0.2-2.4,0.2c-0.8,0.1-1.5,0.1-2.1,0.1c-0.6,0-1.1,0-1.4,0c-1,0-1.5-0.5-1.5-1.6V99.4z
			 M488.9,123.1c0,1.1,0.3,2.1,0.8,3c0.6,0.9,1.3,1.6,2.3,2.2c1,0.6,2.1,1,3.4,1.3c1.3,0.3,2.7,0.5,4.1,0.5
			c10.1,0,15.1-5.2,15.1-15.6c0-2.4-0.3-4.8-0.8-7.2c-0.6-2.4-1.4-4.7-2.5-6.7c-1.1-2-2.5-3.6-4.1-4.9c-1.7-1.2-3.6-1.9-5.8-1.9
			c-0.8,0-2.4,0.2-4.6,0.7c-2.2,0.5-4.9,1.3-7.9,2.5V123.1z"/>
		<path fill="#34495E" d="M531.4,91c2.2-0.6,4.3-1.2,6.2-1.6c1.9-0.4,3.6-0.8,5.1-1.1c1.5-0.3,2.7-0.5,3.6-0.6
			c0.9-0.1,1.5-0.2,1.8-0.2c1.3,0,2,0.7,2,2.2v3.2c1.4-0.8,2.9-1.5,4.4-2.2c1.5-0.7,3-1.3,4.4-1.8c1.4-0.5,2.8-0.9,4.1-1.2
			c1.3-0.3,2.5-0.4,3.5-0.4c1.1,0,2.1,0.2,3,0.6c0.8,0.4,1.6,0.9,2.2,1.6c0.6,0.7,1,1.4,1.3,2.2c0.3,0.8,0.4,1.7,0.4,2.6
			c0,0.9-0.2,1.8-0.5,2.6c-0.3,0.9-0.8,1.6-1.4,2.3c-0.6,0.7-1.4,1.2-2.4,1.6c-1,0.4-2.1,0.6-3.4,0.6h-1.3c-0.2,0-0.4,0-0.7,0
			c-0.2,0-0.5-0.1-0.7-0.1v-1.4c0-1.9-0.4-3.2-1.2-4c-0.8-0.8-1.8-1.2-3-1.2c-1.2,0-2.6,0.3-4.2,0.8c-1.6,0.5-3.1,1.2-4.6,2.1v35
			c0,1-0.5,1.6-1.5,1.7c-0.7,0.1-1.5,0.2-2.3,0.3c-0.8,0.1-1.6,0.2-2.3,0.2c-0.7,0.1-1.4,0.1-2.1,0.1c-0.6,0-1.1,0-1.4,0
			c-1,0-1.5-0.5-1.5-1.6V99.4c0-2.2-0.4-3.7-1.1-4.5c-0.7-0.8-1.8-1.2-3.3-1.2c-0.5,0-0.9,0-1.3,0c-0.4,0-1,0.1-1.6,0.2L531.4,91z"
			/>
		<path fill="#34495E" d="M578.5,92.3c2.2-0.9,4.3-1.6,6.4-2.3c2.1-0.7,4.1-1.2,5.9-1.6c1.8-0.4,3.5-0.8,5-1
			c1.5-0.2,2.8-0.3,3.8-0.3c3,0,5.5,0.3,7.5,1s3.7,1.8,4.9,3.3c1.2,1.5,2.1,3.4,2.7,5.7c0.5,2.3,0.8,5.1,0.7,8.3l-0.3,20.3
			c0,1.3,0,2.5,0.2,3.6c0.2,1.1,0.4,2.2,0.7,3.3c0,0,0.1,0.2,0.1,0.5c0,0.6-0.4,1-1.2,1.1c-0.5,0.1-1.2,0.2-1.8,0.3
			c-0.7,0.1-1.4,0.2-2.1,0.2c-0.7,0.1-1.4,0.1-2.1,0.1c-0.7,0-1.3,0-1.9,0c-0.5,0-0.8-0.1-1-0.4c-0.2-0.2-0.4-0.6-0.5-1.1l-0.8-3
			c-1.6,0.7-3.2,1.4-4.9,2c-1.7,0.6-3.2,1.1-4.8,1.6c-1.5,0.4-2.9,0.8-4.1,1c-1.2,0.2-2.3,0.4-3,0.4c-2.2,0-4.1-0.4-5.7-1.2
			c-1.6-0.8-2.9-1.8-4-3.1c-1-1.2-1.8-2.6-2.3-4c-0.5-1.5-0.7-2.9-0.7-4.2c0-2.4,0.4-4.4,1.3-6c0.8-1.6,2-3,3.5-4.1
			c1.3-1,2.8-1.7,4.5-2.4c1.7-0.6,3.6-1.1,5.7-1.5c2.1-0.4,4.3-0.6,6.7-0.8c2.4-0.2,4.9-0.3,7.6-0.4l0.1-2.1c0-1.9-0.1-3.6-0.3-5.1
			c-0.3-1.5-0.8-2.8-1.5-3.8c-0.7-1-1.7-1.8-2.9-2.4c-1.2-0.5-2.7-0.8-4.5-0.8c-2.2,0-4.6,0.2-7,0.7c-2.4,0.5-5.2,1.2-8.3,2.2
			L578.5,92.3z M604.3,112c-1.9,0.1-3.8,0.2-5.5,0.3c-1.7,0.1-3.3,0.3-4.7,0.5c-1.4,0.2-2.7,0.5-3.7,1c-1.1,0.4-1.9,1-2.6,1.8
			c-0.5,0.6-0.9,1.3-1.2,2.2c-0.3,0.9-0.5,1.8-0.5,2.9c0,0.9,0.1,1.8,0.4,2.7c0.3,0.9,0.7,1.8,1.4,2.5c0.7,0.8,1.6,1.4,2.8,1.9
			c1.2,0.5,2.6,0.7,4.4,0.7c0.2,0,0.7,0,1.2-0.1c0.6-0.1,1.2-0.2,2.1-0.4c0.8-0.2,1.7-0.4,2.7-0.8c1-0.3,2-0.7,3-1.2L604.3,112z"/>
		<path fill="#34495E" d="M656.8,101.1c0-1.2-0.1-2.3-0.2-3.3c-0.1-1-0.4-1.9-0.9-2.6c-0.5-0.7-1.2-1.3-2.1-1.7
			c-0.9-0.4-2.2-0.6-3.8-0.6c-2.3,0-4.3,0.4-5.9,1.2c-1.6,0.8-2.9,1.8-3.9,3.2c-1,1.3-1.7,2.9-2.2,4.7c-0.5,1.8-0.7,3.7-0.7,5.7
			c0,2.8,0.4,5.4,1.1,7.9c0.7,2.4,1.9,4.6,3.4,6.4c1.5,1.8,3.4,3.3,5.8,4.3c2.3,1,5.1,1.6,8.3,1.6c0.8,0,1.8-0.1,2.8-0.2
			c1-0.1,2.1-0.3,3.2-0.5c1.1-0.2,2.1-0.4,3.2-0.7c1-0.3,2-0.5,2.9-0.8l1.4,3.5c-2,0.9-4,1.7-6.2,2.5c-2.2,0.8-4.3,1.4-6.3,2
			c-2,0.6-3.9,1-5.7,1.3s-3.2,0.5-4.3,0.5c-3.3,0-6.3-0.6-8.8-1.9c-2.6-1.2-4.7-2.9-6.4-5c-1.7-2.1-3.1-4.5-4-7.3
			c-0.9-2.7-1.4-5.6-1.4-8.6c0-3.9,0.7-7.4,2.2-10.5c1.5-3.1,3.4-5.8,6-8c2.5-2.2,5.5-3.9,8.9-5.1c3.4-1.2,7.1-1.8,11-1.8
			c1.6,0,3.1,0.1,4.7,0.4c1.6,0.3,3,0.8,4.2,1.5c1.2,0.7,2.3,1.6,3,2.8c0.8,1.2,1.2,2.6,1.2,4.4c0,2.2-0.7,3.8-2.2,4.8
			c-1.5,1-3.3,1.5-5.4,1.5c-0.9,0-1.8-0.1-2.7-0.2V101.1z"/>
		<path fill="#34495E" d="M672.5,90.1c1.1-0.1,2.3-0.2,3.5-0.2c1.3-0.1,2.6-0.2,3.8-0.2V80c0-0.9,0.1-1.5,0.2-1.9
			c0.2-0.4,0.5-0.7,1.1-0.9c0.8-0.3,1.6-0.6,2.5-0.9c0.8-0.3,1.7-0.5,2.4-0.8c0.8-0.2,1.5-0.4,2.1-0.6c0.6-0.1,1.1-0.2,1.4-0.2
			c0.9,0,1.4,0.5,1.4,1.6v12.7c2.8-0.1,5.3-0.2,7.7-0.3c2.3-0.1,4.2-0.1,5.4-0.1c0.3,0,0.6,0.1,0.9,0.3c0.3,0.2,0.4,0.5,0.4,1v0.1
			l-0.2,3.9L690.9,94v26.5c0,2.8,0.7,4.8,2.2,6.1c1.5,1.3,3.4,1.9,5.9,1.9c1.1,0,2.4-0.1,3.8-0.4c1.4-0.3,3-0.8,4.9-1.5l1.3,3.8
			c-1.6,0.7-3.2,1.4-4.8,2c-1.6,0.6-3.2,1.1-4.7,1.6c-1.5,0.5-2.9,0.8-4.1,1.1c-1.2,0.2-2.2,0.4-2.8,0.4c-1.9,0-3.6-0.3-5.1-0.9
			c-1.6-0.6-2.9-1.5-4-2.6c-1.1-1.2-2-2.6-2.6-4.3c-0.6-1.7-0.9-3.6-0.9-5.8V94.1l-7.2,0.2L672.5,90.1z"/>
		<path fill="#34495E" d="M734.6,135.4c-3.4,0-6.6-0.6-9.4-1.8c-2.8-1.2-5.2-2.9-7.3-5c-2-2.1-3.6-4.6-4.7-7.5
			c-1.1-2.9-1.6-6-1.6-9.3c0-3.7,0.6-7,1.9-10c1.3-3,3-5.6,5.3-7.8c2.2-2.1,4.9-3.8,8-5c3.1-1.2,6.5-1.8,10.3-1.8
			c3.4,0,6.6,0.6,9.4,1.8c2.8,1.2,5.3,2.8,7.3,4.9c2,2.1,3.6,4.5,4.7,7.3c1.1,2.8,1.7,5.9,1.7,9.2c0,3.7-0.6,7.1-1.9,10.2
			c-1.2,3.1-3,5.7-5.3,7.9c-2.3,2.2-5,3.9-8.1,5.1C741.8,134.8,738.4,135.4,734.6,135.4z M737.5,129.9c2.2,0,4.1-0.5,5.5-1.5
			c1.5-1,2.6-2.2,3.4-3.8c0.8-1.5,1.4-3.3,1.7-5.2c0.3-1.9,0.5-3.8,0.5-5.6c0-2.2-0.2-4.6-0.7-7.1c-0.5-2.5-1.3-4.8-2.4-6.9
			c-1.1-2.1-2.6-3.8-4.4-5.2c-1.8-1.4-4.1-2.1-6.8-2.1c-2.2,0-4.1,0.5-5.5,1.5c-1.5,1-2.6,2.2-3.4,3.8s-1.4,3.3-1.7,5.2
			c-0.3,1.9-0.5,3.8-0.5,5.6c0,2.3,0.2,4.7,0.7,7.2c0.5,2.5,1.3,4.8,2.4,6.8c1.1,2.1,2.6,3.8,4.4,5.1
			C732.6,129.2,734.8,129.9,737.5,129.9z"/>
		<path fill="#34495E" d="M766.2,91c2.2-0.6,4.3-1.2,6.2-1.6c1.9-0.4,3.6-0.8,5.1-1.1c1.5-0.3,2.7-0.5,3.6-0.6
			c0.9-0.1,1.5-0.2,1.8-0.2c1.3,0,2,0.7,2,2.2v3.2c1.4-0.8,2.9-1.5,4.4-2.2c1.5-0.7,3-1.3,4.4-1.8c1.4-0.5,2.8-0.9,4.1-1.2
			c1.3-0.3,2.5-0.4,3.5-0.4c1.1,0,2.1,0.2,3,0.6c0.8,0.4,1.6,0.9,2.2,1.6c0.6,0.7,1,1.4,1.3,2.2c0.3,0.8,0.4,1.7,0.4,2.6
			c0,0.9-0.2,1.8-0.5,2.6c-0.3,0.9-0.8,1.6-1.4,2.3c-0.6,0.7-1.4,1.2-2.4,1.6c-1,0.4-2.1,0.6-3.4,0.6h-1.3c-0.2,0-0.4,0-0.7,0
			c-0.2,0-0.5-0.1-0.7-0.1v-1.4c0-1.9-0.4-3.2-1.2-4c-0.8-0.8-1.8-1.2-3-1.2c-1.2,0-2.6,0.3-4.2,0.8c-1.6,0.5-3.1,1.2-4.6,2.1v35
			c0,1-0.5,1.6-1.5,1.7c-0.7,0.1-1.5,0.2-2.3,0.3c-0.8,0.1-1.6,0.2-2.3,0.2c-0.7,0.1-1.4,0.1-2.1,0.1c-0.6,0-1.1,0-1.4,0
			c-1,0-1.5-0.5-1.5-1.6V99.4c0-2.2-0.4-3.7-1.1-4.5c-0.7-0.8-1.8-1.2-3.3-1.2c-0.5,0-0.9,0-1.3,0c-0.4,0-1,0.1-1.6,0.2L766.2,91z"
			/>
		<path fill="#34495E" d="M842.1,102.3c-0.5-1.5-0.9-2.9-1.4-4.2c-0.5-1.2-1-2.3-1.8-3.2c-0.7-0.9-1.6-1.6-2.8-2.1
			c-1.1-0.5-2.6-0.7-4.3-0.7c-1.1,0-2.2,0.1-3.2,0.3c-1.1,0.2-2.1,0.5-2.9,1c-0.9,0.5-1.6,1.1-2.1,1.8s-0.8,1.7-0.8,2.8
			c0,1.1,0.3,2.1,0.9,2.9c0.6,0.8,1.5,1.6,2.5,2.2c1,0.6,2.2,1.2,3.6,1.8c1.4,0.5,2.8,1.1,4.2,1.6c1.7,0.6,3.5,1.3,5.2,2.1
			c1.7,0.8,3.2,1.7,4.6,2.8c1.3,1.1,2.4,2.4,3.3,3.8c0.8,1.5,1.3,3.2,1.3,5.3c0,2.6-0.7,4.9-2,6.7c-1.3,1.9-3.1,3.4-5.2,4.6
			c-2.1,1.2-4.5,2.1-7,2.6c-2.6,0.6-5,0.8-7.4,0.8c-1.5,0-3.1-0.2-4.9-0.5c-1.8-0.3-3.5-0.8-5.1-1.5c-1.6-0.7-2.9-1.6-4-2.8
			c-1.1-1.2-1.6-2.6-1.6-4.3c0-2,0.7-3.5,2.1-4.4c1.4-0.9,3.1-1.4,5.2-1.4c0.5,0,0.8,0,1.2,0c0.3,0,0.7,0.1,1.2,0.2v1.1
			c0,2.7,0.7,4.8,2,6.3c1.3,1.5,3.5,2.2,6.5,2.2c1.1,0,2.2-0.1,3.2-0.4c1-0.2,1.9-0.6,2.7-1.1c0.8-0.5,1.4-1.1,1.9-1.9
			c0.5-0.8,0.7-1.7,0.7-2.7c0-1.3-0.3-2.4-1-3.3c-0.6-0.9-1.5-1.7-2.6-2.4c-1.1-0.7-2.3-1.3-3.6-1.8c-1.4-0.5-2.8-1.1-4.2-1.7
			c-1.7-0.6-3.4-1.3-5.1-2.1c-1.7-0.7-3.2-1.6-4.6-2.7c-1.3-1.1-2.4-2.3-3.3-3.8c-0.9-1.5-1.3-3.3-1.3-5.4c0-2.6,0.7-4.7,2-6.5
			c1.3-1.8,3.1-3.2,5.1-4.3c2.1-1.1,4.3-1.9,6.7-2.4c2.4-0.5,4.7-0.7,6.8-0.7c2,0,4,0.1,5.9,0.4c1.9,0.2,3.8,0.7,5.7,1.2
			c0.3,0.1,0.5,0.2,0.5,0.5c0.1,0.7,0.2,1.7,0.2,2.9c0.1,1.2,0.1,2.5,0.2,3.8c0,1.3,0.1,2.5,0.1,3.6c0,1.1,0,2,0,2.5L842.1,102.3z"
			/>
	</g>
	<g>
		<path fill="#34495E" d="M547.5,203.5c-2,1-4.1,1.8-6.3,2.6c-2.2,0.8-4.3,1.5-6.4,2.1c-2.1,0.6-4,1-5.9,1.3
			c-1.8,0.3-3.3,0.5-4.5,0.5c-3.4,0-6.3-0.6-8.9-1.9c-2.6-1.3-4.8-2.9-6.5-5c-1.8-2.1-3.1-4.5-4-7.3c-0.9-2.7-1.4-5.6-1.4-8.5
			c0-3.8,0.7-7.3,2.1-10.4c1.4-3.1,3.3-5.8,5.8-8c2.4-2.2,5.3-3.9,8.5-5.2c3.2-1.2,6.7-1.8,10.3-1.8c2.4,0,4.5,0.4,6.3,1.1
			c1.8,0.7,3.4,1.7,4.6,3c1.2,1.3,2.2,2.8,2.9,4.6c0.7,1.8,1,3.7,1,5.9c0,1.8-0.4,4.1-1.1,6.8l-29.3,1.6c0.2,2.6,0.7,5,1.6,7.2
			c0.9,2.2,2.1,4,3.7,5.6c1.6,1.6,3.5,2.8,5.9,3.7c2.3,0.9,4.9,1.3,7.9,1.3c2,0,4.1-0.2,6.4-0.7c2.3-0.5,4.3-1.1,6.1-1.8
			L547.5,203.5z M533.7,179.6c0.1-0.6,0.2-1.1,0.2-1.7c0-0.5,0.1-1.1,0.1-1.7c0-1.2-0.2-2.3-0.5-3.3c-0.4-1-0.9-1.9-1.5-2.7
			c-0.7-0.8-1.5-1.4-2.5-1.8c-1-0.4-2.1-0.7-3.4-0.7c-2,0-3.7,0.4-5.1,1.1c-1.4,0.7-2.6,1.7-3.5,2.9c-0.9,1.2-1.6,2.6-2.1,4.2
			c-0.5,1.6-0.7,3.3-0.7,5L533.7,179.6z"/>
		<path fill="#34495E" d="M550,165.4c1.7-0.5,3.4-0.9,5-1.3c1.6-0.4,3.1-0.7,4.5-1c1.3-0.3,2.5-0.5,3.4-0.6c0.9-0.1,1.5-0.2,1.8-0.2
			c0.6,0,1.1,0.1,1.5,0.3c0.4,0.2,0.8,0.6,1.2,1.2l9.8,14.3l9.5-12.8c0.3-0.5,0.7-0.8,1-1.1c0.3-0.3,0.8-0.5,1.3-0.7
			c0.6-0.2,1.2-0.3,2-0.5c0.7-0.1,1.5-0.3,2.2-0.4c0.7-0.1,1.3-0.2,1.9-0.2c0.6-0.1,1-0.1,1.3-0.1c0.8,0,1.2,0.3,1.2,0.9
			c0,0.3-0.1,0.6-0.4,0.9l-16.3,19.2l16,23.3c0.2,0.3,0.3,0.6,0.3,0.9c0,0.6-0.4,1-1.2,1.1c-0.3,0.1-0.7,0.1-1.2,0.2
			c-0.4,0-0.9,0.1-1.3,0.1l-2.8,0.3c-0.9,0.1-1.8,0.2-2.5,0.2c-0.8,0-1.3,0.1-1.6,0.1c-0.6,0-1.1-0.3-1.5-0.8l-12.1-17.5l-11.1,15.3
			c-0.3,0.5-0.7,0.8-1,1.1c-0.3,0.3-0.8,0.5-1.3,0.7c-0.6,0.2-1.3,0.3-2.1,0.5c-0.8,0.1-1.6,0.3-2.3,0.4c-0.7,0.1-1.4,0.2-2.1,0.3
			c-0.6,0.1-1.1,0.1-1.4,0.1c-0.8,0-1.2-0.3-1.2-0.9c0-0.3,0.1-0.6,0.4-0.9l18.4-21.5l-9.4-13.7c-1.2-1.7-2.3-2.8-3.3-3.5
			c-1-0.6-2.2-1-3.5-1c-0.4,0-0.9,0-1.3,0.1c-0.5,0-0.9,0.1-1.4,0.2L550,165.4z"/>
		<path fill="#34495E" d="M608.4,174.2c0-2.2-0.4-3.7-1.1-4.5c-0.7-0.8-1.8-1.2-3.4-1.2c-0.4,0-0.8,0-1.3,0c-0.4,0-1,0.1-1.6,0.2
			l-0.4-3c2.2-0.6,4.3-1.2,6.2-1.6c1.9-0.4,3.5-0.8,5-1.1c1.4-0.3,2.6-0.5,3.5-0.6c0.9-0.1,1.5-0.2,1.8-0.2c1.2,0,1.9,0.7,2.1,2.2
			l0.2,2.7c2-0.7,4.1-1.4,6.1-2c2-0.6,3.9-1.2,5.7-1.7c1.8-0.5,3.5-0.8,5-1.1c1.5-0.3,2.8-0.4,3.8-0.4c2.5,0,4.8,0.7,6.8,2
			c2,1.3,3.7,3.1,5.1,5.2c1.4,2.1,2.5,4.5,3.2,7.1c0.7,2.6,1.1,5.1,1.1,7.6c0,4.4-0.8,8.2-2.4,11.5c-1.6,3.3-3.7,6-6.4,8.2
			c-2.7,2.2-5.7,3.9-9.2,5c-3.4,1.1-7,1.6-10.8,1.6c-1.3,0-2.7-0.1-4-0.2c-1.3-0.1-2.7-0.4-4.1-0.7v26c0,1-0.5,1.6-1.5,1.7
			c-0.7,0.1-1.4,0.2-2.2,0.3c-0.8,0.1-1.6,0.2-2.4,0.2c-0.8,0.1-1.5,0.1-2.1,0.1c-0.6,0-1.1,0-1.4,0c-1,0-1.5-0.5-1.5-1.6V174.2z
			 M619.5,197.8c0,1.1,0.3,2.1,0.8,3c0.6,0.9,1.3,1.6,2.3,2.2c1,0.6,2.1,1,3.4,1.3c1.3,0.3,2.7,0.5,4.1,0.5
			c10.1,0,15.1-5.2,15.1-15.6c0-2.4-0.3-4.8-0.8-7.2c-0.6-2.4-1.4-4.7-2.5-6.7c-1.1-2-2.5-3.6-4.1-4.9c-1.7-1.2-3.6-1.9-5.8-1.9
			c-0.8,0-2.4,0.2-4.6,0.7c-2.2,0.5-4.9,1.3-7.9,2.5V197.8z"/>
		<path fill="#34495E" d="M707.7,203.5c-2,1-4.1,1.8-6.3,2.6c-2.2,0.8-4.3,1.5-6.4,2.1c-2.1,0.6-4,1-5.9,1.3
			c-1.8,0.3-3.3,0.5-4.5,0.5c-3.4,0-6.3-0.6-8.9-1.9c-2.6-1.3-4.8-2.9-6.5-5c-1.8-2.1-3.1-4.5-4-7.3c-0.9-2.7-1.4-5.6-1.4-8.5
			c0-3.8,0.7-7.3,2.1-10.4c1.4-3.1,3.3-5.8,5.8-8c2.4-2.2,5.3-3.9,8.5-5.2c3.2-1.2,6.7-1.8,10.3-1.8c2.4,0,4.5,0.4,6.3,1.1
			c1.8,0.7,3.4,1.7,4.6,3c1.2,1.3,2.2,2.8,2.9,4.6c0.7,1.8,1,3.7,1,5.9c0,1.8-0.4,4.1-1.1,6.8l-29.3,1.6c0.2,2.6,0.7,5,1.6,7.2
			c0.9,2.2,2.1,4,3.7,5.6c1.6,1.6,3.5,2.8,5.9,3.7c2.3,0.9,4.9,1.3,7.9,1.3c2,0,4.1-0.2,6.4-0.7c2.3-0.5,4.3-1.1,6.1-1.8
			L707.7,203.5z M693.9,179.6c0.1-0.6,0.2-1.1,0.2-1.7c0-0.5,0.1-1.1,0.1-1.7c0-1.2-0.2-2.3-0.5-3.3c-0.4-1-0.9-1.9-1.5-2.7
			c-0.7-0.8-1.5-1.4-2.5-1.8c-1-0.4-2.1-0.7-3.4-0.7c-2,0-3.7,0.4-5.1,1.1c-1.4,0.7-2.6,1.7-3.5,2.9c-0.9,1.2-1.6,2.6-2.1,4.2
			c-0.5,1.6-0.7,3.3-0.7,5L693.9,179.6z"/>
		<path fill="#34495E" d="M711.9,165.7c2.2-0.6,4.3-1.2,6.2-1.6c1.9-0.4,3.6-0.8,5.1-1.1c1.5-0.3,2.7-0.5,3.6-0.6
			c0.9-0.1,1.5-0.2,1.8-0.2c1.3,0,2,0.7,2,2.2v3.2c1.4-0.8,2.9-1.5,4.4-2.2c1.5-0.7,3-1.3,4.4-1.8c1.4-0.5,2.8-0.9,4.1-1.2
			c1.3-0.3,2.5-0.4,3.5-0.4c1.1,0,2.1,0.2,3,0.6c0.8,0.4,1.6,0.9,2.2,1.6c0.6,0.7,1,1.4,1.3,2.2c0.3,0.8,0.4,1.7,0.4,2.6
			c0,0.9-0.2,1.8-0.5,2.6c-0.3,0.9-0.8,1.6-1.4,2.3c-0.6,0.7-1.4,1.2-2.4,1.6c-1,0.4-2.1,0.6-3.4,0.6h-1.3c-0.2,0-0.4,0-0.7,0
			c-0.2,0-0.5-0.1-0.7-0.1v-1.4c0-1.9-0.4-3.2-1.2-4c-0.8-0.8-1.8-1.2-3-1.2c-1.2,0-2.6,0.3-4.2,0.8c-1.6,0.5-3.1,1.2-4.6,2.1v35
			c0,1-0.5,1.6-1.5,1.7c-0.7,0.1-1.5,0.2-2.3,0.3c-0.8,0.1-1.6,0.2-2.3,0.2c-0.7,0.1-1.4,0.1-2.1,0.1c-0.6,0-1.1,0-1.4,0
			c-1,0-1.5-0.5-1.5-1.6v-33.9c0-2.2-0.4-3.7-1.1-4.5c-0.7-0.8-1.8-1.2-3.3-1.2c-0.5,0-0.9,0-1.3,0c-0.4,0-1,0.1-1.6,0.2
			L711.9,165.7z"/>
		<path fill="#34495E" d="M755.1,164.8c1.1-0.1,2.3-0.2,3.5-0.2c1.3-0.1,2.6-0.2,3.8-0.2v-9.6c0-0.9,0.1-1.5,0.2-1.9
			c0.2-0.4,0.5-0.7,1.1-0.9c0.8-0.3,1.6-0.6,2.5-0.9c0.8-0.3,1.7-0.5,2.4-0.8c0.8-0.2,1.5-0.4,2.1-0.6c0.6-0.1,1.1-0.2,1.4-0.2
			c0.9,0,1.4,0.5,1.4,1.6v12.7c2.8-0.1,5.3-0.2,7.7-0.3c2.3-0.1,4.2-0.1,5.4-0.1c0.3,0,0.6,0.1,0.9,0.3c0.3,0.2,0.4,0.5,0.4,1v0.1
			l-0.2,3.9l-14.2,0.1v26.5c0,2.8,0.7,4.8,2.2,6.1c1.5,1.3,3.4,1.9,5.9,1.9c1.1,0,2.4-0.1,3.8-0.4c1.4-0.3,3-0.8,4.9-1.5l1.3,3.8
			c-1.6,0.7-3.2,1.4-4.8,2c-1.6,0.6-3.2,1.1-4.7,1.6s-2.9,0.8-4.1,1.1c-1.2,0.2-2.2,0.4-2.8,0.4c-1.9,0-3.6-0.3-5.1-0.9
			c-1.6-0.6-2.9-1.5-4-2.6c-1.1-1.2-2-2.6-2.6-4.3c-0.6-1.7-0.9-3.6-0.9-5.8v-27.7l-7.2,0.2L755.1,164.8z"/>
	</g>
</g>
<path fill="#1B516D" d="M224.6,75.5c-0.5-2.2-0.8-4.6-1.1-6.7c-0.3-2.2-1-4.3-1.6-6.5c-1.2-4.4-2.2-8.9-4.1-13.2
	c-1.8-4-3.6-7.8-6-11.5c-1.4-2.2-3.1-4.5-4.7-6.6c-1.4-1.9-3.3-3.8-4.2-6.1c-0.8-2-1.1-4.2-1.5-6.4c-0.7-3.9-1.3-7.9-2.3-11.8
	c-0.4-1.4-1.2-2.7-1.8-4c-0.4-0.7-0.7-1.6-1.3-2.2c-0.7-0.6-1.9-0.8-2.7-0.4c-0.3,0.2-0.5,0.7-0.8,0.8c-0.6,0.3-1-0.1-1.6-0.2
	c-0.5-0.1-0.8-0.3-1.4-0.3c-0.5,0-0.7,0.4-1.1,0.5c-0.5,0.1-1,0-1.5,0.1c-0.4,0.1-0.9,0.5-1.4,0.5c-1.1-0.1-1.5-0.8-2.6-0.2
	c-0.6,0.3-1.5,1.4-2.1,1.2c-0.7-0.2-1.1-1.2-2-1.2c-0.9,0-1.8,0.2-2.4,0.9c-0.5,0.6-0.7,1.8-0.7,2.5c-0.1,1.2,0.5,2,1.2,2.9
	c0.5,0.7,0.8,1.4,1.1,2.2c0.3,1,0.9,1.9,0.7,3c-0.2,1.3-0.6,1.2-1.3,0.3c-0.6-0.9-0.5-1.8-0.6-2.9c-0.1-0.9-1.2-4.9-2.7-3.4
	c-0.5,0.5-0.5,1.8-0.7,2.5c-0.3,0.9-0.9,1.8-1.1,2.7c-0.4,1.8,1.2,3.4,1.9,5c0.8,1.7,1.1,2.8,2.7,4c1.3,1,2.8,2.1,4.3,2.7
	c1.8,0.7,3.6,1,5.1,1.9c1.3,0.8,2.6,3,3.4,4.4c0.9,1.5,1.3,3.6,1.9,5.2c2.5,6.8,4.7,13.7,4.7,21c0,3.7,0.9,7.1,1.6,10.5
	c0.4,1.7,0.9,3.3,1.3,4.9c0.3,1.1,1.2,3.8,0.6,4.7c-1.1,0.2-2.1-0.4-3.2-0.2c-1.1,0.1-1.9,0.7-3,0.8c-1.1,0.1-2.2-0.1-3.2,0
	c-2.5,0.3-4.9,0.9-7.4,1.3c-0.2,0-0.3,0-0.5,0.1c-0.3,0-0.6,0.1-0.9,0.1c-0.2,0-0.3,0-0.5,0.1c-0.3,0-0.6,0.1-0.9,0.1
	c-0.2,0-0.3,0-0.5,0c-0.5,0-0.9,0-1.4,0c-4.4-0.1-8.7-1.3-13-1.5c-1.9-0.1-3.7,0-5.6,0.2c-1.9,0.2-3.7,0.5-5.5,0.9
	c-1.2,0.2-2.4,0.5-3.7,0.7c-5.9,1.2-13.8,6.7-19.9,4.8c-2.7-0.8-6.7-4.1-5.8-7.3c0.7-2.7,3.3-1.8,5.5-3.5c2.9-2.2,4.8-5.2,6.2-8.6
	c1.1-2.8,2.5-5.6,3-8.7c0.2-1,0.3-2,0.4-3c0.1-0.4,0.1-0.8,0.1-1.2c0.1-0.5,0.1-1,0.2-1.6c0.3-2.8,0.5-5.7,0.6-8.4
	c0.1-3.1-0.7-6-1-9.1c-0.2-1.5,1.1-3.7,0.8-5.2c-1.3-5.8-6.5-10-11.2-13.1c-5.4-3.5-10.9-4.3-17.2-3.4C100.4,12.7,90.4,24,89.3,35.6
	c-0.2,1.7-0.3,3.1-0.5,5.1h0c0,0,0,0.1,0,0.1c0,1.1-0.2,2.1-0.3,3.2c0,0.1,0,0.2,0,0.3c0,0.5,0,0.9-0.1,1.4c0,0.1,0,0.1,0,0.2
	c0,0.5,0,1,0,1.5c0,0.1,0,0.2,0,0.3c0,0.4,0,0.8,0.1,1.2c0,0.1,0,0.2,0,0.3c0,0.5,0.1,1,0.2,1.4c0,0.1,0,0.1,0,0.2
	c0.1,0.4,0.2,0.8,0.3,1.2c0,0.1,0.1,0.3,0.1,0.4c0.1,0.5,0.3,0.9,0.4,1.4c0.2,0.5,0.4,0.9,0.6,1.4c0.2,0.5,0.5,0.9,0.8,1.4
	c0.1,0.2,0.3,0.5,0.4,0.7c0.8,1.4,1.7,2.9,2.4,4.3c0.5,1.2,0.9,2.5,0.9,3.7c0,3.5-1.1,6.7-2.2,9.8c-0.2,0.4-0.3,0.9-0.5,1.3
	c-0.2,0.6-0.4,1.1-0.6,1.6c-0.2,0.5-0.4,1-0.6,1.5c-0.2,0.5-0.4,0.9-0.6,1.3c-0.5,1-1.2,1.9-2.1,2.6c-0.9,0.7-2.1,1.3-3.7,1.7
	c-5.6,1.5-10.9,5.3-16.4,7.7c-0.8,0.3-1.6,0.7-2.4,1c-1.1,0.4-2.3,0.8-3.4,1.3c-0.8,0.3-1.5,0.6-2.3,0.9c-1.5,0.6-3,1.3-4.4,2.1
	c-2.4,1.4-4.7,3.1-6.6,5.3c-2.1,2.4-3.9,5.1-5.4,7.9c-2.6,4.7-4.6,9.8-6.3,14.8c-0.3,0.8-0.5,1.6-0.7,2.4c-0.1,0.2-0.1,0.4-0.2,0.6
	c-0.2,0.8-0.4,1.6-0.6,2.4c0,0,0,0,0,0l0,0c-1.6,7.7-1.7,15.8-4.3,23.3c-3.3,9.6-8.4,18.5-12.3,27.9c-0.8,1.8-1.4,3.7-2.1,5.6
	c5.7,10.1,13.1,19.1,21.9,26.5c0.7-0.9,1.4-1.8,2-2.8c3.9-6.4,6.5-14.2,9.7-21c1.4-3,1.7-6.2,2.8-9.2c0.5-1.3,1.1-2.7,1.6-4
	c1.1-3,1.9-6.2,3.1-9.2c1-2.5,2.5-4.8,3.6-7.2c0.8-1.7,2.5-6.8,3.1-10.3c-0.2,6.4,2.4,14.9,3.1,20.4c0.5,4.3,0.2,8.6,0.2,12.9
	c0.1,7-1.1,13.6-2.8,20.4c-0.7,2.7-1,18.5-1.4,21.4c-0.2,1.4,0,3,0,4.5c10.3,4.4,21.5,7.2,33.3,7.9c6.8-0.4,13.6-1.4,20.4-1.9
	c4-0.3,8.1-0.9,12.1-1.4c7.8-2.1,15.3-5.2,22.2-9.1c-0.2-0.6-0.3-1.2-0.4-1.9c-0.1-0.9-0.3-1.8-0.5-2.7c-0.2-1-0.3-15-0.5-16
	c-1-4.3-1.4-8.8-2.4-12.9c-0.6-2.2-0.8-4.3-1.7-6.5c-0.7-1.9-1.5-4.1-1.6-6.2c0-1.8-0.3-3.5-0.3-5.3l0,0c0-0.5,0-0.9,0.1-1.4
	c0.1-0.6,0.3-1.4,0.6-2.1c0.1-0.2,0.1-0.5,0.2-0.7c0.1-0.5,0.2-1.1,0.3-1.6s0.1-1.1,0.2-1.6c1-4.3,0.9-9,1.4-13.5
	c0.2-2,0.3-4.1,0.8-5.9c0.5-2,1.4-3.9,2.2-5.9c0.7-1.8,1-4.1,1.4-5.9c0.5-2.1,0.9-3.9,1.9-5.9c1.9-3.6,3.2-7.5,5.3-11.2
	c1.6-2.8,3.7-4.8,6.1-6.1c1-0.6,2-1,3-1.4c4.7-1.8,10.3-2.1,15.4-2.9c0.6-0.1,1.3-0.2,1.9-0.3c0.2,0,0.5-0.1,0.7-0.1
	c0.4-0.1,0.8-0.2,1.2-0.3c0.3-0.1,0.6-0.1,0.8-0.2c0.3-0.1,0.7-0.2,1-0.3c0.3-0.1,0.6-0.2,1-0.3c0.2-0.1,0.4-0.1,0.7-0.2
	c1.4-0.5,2.8-1,4.2-1.6c0.1,0,0.1-0.1,0.2-0.1c7.1-3.1,13.7-7.6,19.5-12.1c2.9-2.3,6.1-4.5,8.6-7.3c1.2-1.3,2.1-2.6,2.4-4.4
	C226.2,79.3,225,77.2,224.6,75.5z"/>
<path fill="#FFFFFF" d="M110.3,87.2c0,0-0.3,0.5-0.7,1.3c-0.5,0.9-1.2,2.1-1.9,3.9c-0.8,1.7-1.5,3.9-2.3,6.4
	c-0.4,1.3-0.7,2.6-1.1,4.1c-0.3,1.4-0.6,2.9-0.9,4.5c-0.5,3.2-1,6.7-1.3,10.4c0,0.5-0.1,0.9-0.1,1.4l0,0.7l0,0.4l0,0.1l0,0.2l0,0.2
	c0,0.9,0,1.9,0,2.8c0,1.9,0,3.8,0,5.8c0.1,2,0.2,4.1,0.3,6.2c0.1,1,0.1,2.1,0.2,3.1c0.1,1,0.2,2.1,0.3,3.1c0.2,2.1,0.4,4.2,0.7,6.3
	c0.3,2.1,0.6,4.2,0.9,6.3c0.3,2.1,0.7,4.2,1,6.2c0.2,1,0.3,2,0.5,3c0.2,1,0.3,2.1,0.5,3.1c0.2,1,0.3,2,0.5,3.1l0.2,1.5l0,0.2l0,0
	c0,0,0,0.1,0-0.1l0,0.1l0,0.4l0.1,0.8c0.1,1,0.3,2,0.4,3c0.1,0.9,0.2,1.9,0.3,2.8c0.1,0.7,0.1,2,0.2,2.7c0,0.9,0,1.9,0,2.8
	c0,1,0,1.9,0,2.8c0,0.9,0,1.8,0,2.7c-0.1,3.6-0.1,7-0.1,10.2c0,1.6,0,3.1,0,4.5c0,1.4-0.1,2.8-0.1,4.1c0,2.6,0,4.8,0,6.7
	c0,1.9,0,3.3,0.1,4.3c0,1,0,1.5,0,1.5s0.1-0.5,0.4-1.5c0.2-1,0.6-2.4,0.9-4.2c0.4-1.8,0.8-4,1.3-6.5c0.2-1.3,0.5-2.6,0.8-4
	c0.3-1.5,0.4-3,0.7-4.5c0.4-3.1,0.9-6.5,1.3-10.1c0.1-0.4,0.1-0.9,0.2-1.4l0.1-0.7l0.1-0.8c0.1-0.9,0.2-1.9,0.2-2.8
	c0-0.5,0.1-1,0.1-1.5c0-0.5,0.1-1,0.1-1.4c0-1.2,0.1-1.9,0-3.1c0-1-0.1-2.1-0.1-3.1c-0.1-1-0.1-2-0.2-3l-0.1-0.8l0-0.4l0-0.3l0-0.2
	l-0.2-1.5c-0.1-1-0.2-2-0.4-3.1c-0.1-1-0.3-2.1-0.4-3.1c-0.2-1.1-0.3-2.1-0.5-3.2c-0.3-2.1-0.6-4.2-0.9-6.2
	c-0.6-4.1-1.3-8.3-1.8-12.3c-0.6-4.1-0.9-8-1.4-11.8c-0.1-2-0.3-3.9-0.4-5.8c-0.1-0.9-0.1-1.9-0.2-2.8c0-0.9-0.1-1.8-0.1-2.6
	c-0.1-3.5-0.1-6.9,0-10c0-1.6,0.2-3.1,0.3-4.5c0.1-1.3,0.3-2.7,0.4-4c0.3-2.5,0.6-4.7,1-6.5c0.2-0.9,0.3-1.7,0.5-2.4
	c0.2-0.7,0.3-1.3,0.4-1.8C110.1,87.8,110.3,87.2,110.3,87.2z"/>
</svg>
